<svg width="24" height="25" viewBox="0 0 24 25" fill="none" xmlns="http://www.w3.org/2000/svg">
<path d="M19.9966 23.997C18.4459 25.3162 16.7527 25.1079 15.1229 24.483C13.3981 23.8442 11.8157 23.8164 9.99598 24.483C7.71736 25.344 6.51476 25.0941 5.15392 23.997C-2.56807 17.0117 -1.42876 6.3742 7.3376 5.98536C9.4738 6.08257 10.9612 7.013 12.2113 7.09633C14.0785 6.76303 15.8666 5.80482 17.8604 5.92981C20.2498 6.09645 22.0537 6.92968 23.2405 8.42949C18.3035 11.0264 19.4744 16.734 24 18.331C23.098 20.4141 21.9271 22.4833 19.9808 24.0109L19.9966 23.997ZM12.0531 5.90203C11.8157 2.8052 14.6798 0.249968 17.9712 0C18.43 3.58288 14.2684 6.24921 12.0531 5.90203Z" fill="black"/>
</svg>
