<svg width="24" height="21" viewBox="0 0 24 21" fill="none" xmlns="http://www.w3.org/2000/svg">
<path d="M1.25186 2.21534L7.31233 0.0937798C7.33828 0.0847261 7.3659 0.0814865 7.39324 0.0842903C7.42057 0.0870941 7.44696 0.0958729 7.47053 0.110005C7.4941 0.124137 7.51427 0.143277 7.52962 0.166071C7.54497 0.188864 7.55513 0.214753 7.55936 0.241905C7.73471 1.29241 8.27696 2.24667 9.08969 2.93498C9.90241 3.62329 10.9329 4.00104 11.998 4.00104C13.063 4.00104 14.0935 3.62329 14.9062 2.93498C15.719 2.24667 16.2612 1.29241 16.4366 0.241905C16.4407 0.214301 16.4509 0.187963 16.4665 0.164812C16.4821 0.141662 16.5026 0.122283 16.5267 0.108089C16.5507 0.0938959 16.5776 0.085246 16.6054 0.0827704C16.6332 0.0802948 16.6612 0.084056 16.6873 0.0937798L22.7478 2.21534C22.9174 2.27472 23.0601 2.39304 23.1498 2.54876C23.2396 2.70448 23.2704 2.88724 23.2367 3.06378L22.4572 7.18878C22.4272 7.34601 22.3477 7.48951 22.2303 7.59831C22.1129 7.70711 21.9637 7.7755 21.8047 7.79347L19.5134 8.05222C19.4199 8.06276 19.3338 8.1081 19.2721 8.17922C19.2104 8.25034 19.1778 8.34204 19.1806 8.43612L19.5242 19.7283C19.5288 19.8739 19.4909 20.0176 19.4151 20.1419C19.3394 20.2663 19.2291 20.3659 19.0976 20.4286C18.9884 20.478 18.8697 20.5028 18.7498 20.5013H5.24983C5.12998 20.5028 5.01125 20.478 4.90202 20.4286C4.77061 20.3659 4.6603 20.2663 4.58456 20.1419C4.50881 20.0176 4.4709 19.8739 4.47546 19.7283L4.81905 8.43612C4.82188 8.34204 4.78922 8.25034 4.72757 8.17922C4.66591 8.1081 4.57977 8.06276 4.48624 8.05222L2.19499 7.79347C2.03594 7.7755 1.88681 7.70711 1.76941 7.59831C1.652 7.48951 1.57249 7.34601 1.54249 7.18878L0.762957 3.06378C0.729275 2.88724 0.760107 2.70448 0.849838 2.54876C0.939569 2.39304 1.08224 2.27472 1.25186 2.21534Z" fill="url(#paint0_linear_408_6788)"/>
<defs>
<linearGradient id="paint0_linear_408_6788" x1="11.9998" y1="21.5223" x2="8.79231" y2="0.438787" gradientUnits="userSpaceOnUse">
<stop stop-color="#005555"/>
<stop offset="1" stop-color="#008B8B"/>
</linearGradient>
</defs>
</svg>
