<svg width="191" height="101" viewBox="0 0 191 101" fill="none" xmlns="http://www.w3.org/2000/svg">
<path d="M111.507 59.5304C112.564 58.4722 113.107 57.0994 113.164 55.698C108.75 56.3129 104.636 58.3578 101.45 61.5467L81.8516 81.166C64.767 98.2686 36.926 98.7691 19.7129 81.7952C2.35694 64.6783 2.27123 36.7222 19.4701 19.5052C35.0547 3.90412 59.4674 2.50274 76.6376 15.3297C79.7232 17.6319 83.3372 19.0762 87.1369 19.4194C87.1084 18.0037 86.5656 16.5881 85.4799 15.5013C76.1234 6.13489 63.6957 0.972656 50.468 0.972656C37.2403 0.972656 24.8126 6.13489 15.4561 15.487C6.11383 24.8533 0.957031 37.2942 0.957031 50.5358C0.957031 63.7774 6.11383 76.2183 15.4561 85.5847C34.7548 104.904 66.1669 104.904 85.4656 85.5847L111.507 59.5304Z" fill="#00554B"/>
<path d="M19.4697 19.4322C2.2709 36.6492 2.35661 64.6053 19.7126 81.7222C36.9257 98.6961 64.7667 98.2099 81.8513 81.093L101.45 61.4737C104.635 58.2848 108.749 56.2543 113.163 55.6251C113.163 55.5536 113.178 55.4964 113.178 55.4249C113.178 53.9663 112.621 52.522 111.521 51.4066C109.307 49.1901 105.707 49.1901 103.493 51.4066L77.4515 77.4752C62.5811 92.3613 38.3685 92.3613 23.498 77.4752C16.2985 70.2681 12.3274 60.6729 12.3274 50.4628C12.3274 40.2671 16.2985 30.6719 23.498 23.4505C30.6976 16.2434 40.2826 12.268 50.4819 12.268C60.667 12.268 70.252 16.2434 77.4658 23.4505C79.68 25.6669 83.2797 25.6669 85.4939 23.4505C86.6224 22.3208 87.1795 20.8193 87.1509 19.3321C83.3511 18.9889 79.7371 17.5304 76.6516 15.2424C59.467 2.42975 35.0687 3.81683 19.4697 19.4322Z" fill="#00554B"/>
<path d="M32.4112 34.778C24.6546 43.7011 24.6546 57.2145 32.4112 66.1375C40.4678 75.3895 53.7669 76.8624 63.4806 70.5276C66.3375 68.6686 69.6516 67.639 73.0371 67.4245C73.0513 65.9516 72.4942 64.4931 71.38 63.3634C69.1659 61.1469 65.5661 61.1469 63.352 63.3634C59.9094 66.8096 55.3382 68.7115 50.4671 68.7115C45.596 68.7115 41.0249 66.8096 37.5823 63.3634C34.1397 59.9171 32.2398 55.3412 32.2398 50.4649C32.2398 45.5887 34.1397 41.0128 37.5823 37.5665C44.6818 30.4595 56.2525 30.4595 63.352 37.5665C65.5661 39.783 69.1659 39.783 71.38 37.5665C72.4942 36.4511 73.0371 35.0068 73.0371 33.5483C73.0371 33.534 73.0371 33.5054 73.0371 33.4911C69.6373 33.2766 66.3375 32.247 63.4806 30.388C53.7669 24.0532 40.4678 25.5261 32.4112 34.778Z" fill="#F8B400"/>
<path d="M29.554 29.5318C23.9687 35.123 20.8975 42.5589 20.8975 50.4667C20.8975 58.3745 23.9687 65.8104 29.554 71.4016C35.1394 76.9928 42.5674 80.0673 50.4669 80.0673C58.3664 80.0673 65.7944 76.9928 71.3798 71.4016C72.4797 70.3005 73.0368 68.8562 73.0368 67.412C69.637 67.6265 66.3373 68.656 63.4803 70.515C53.7667 76.8355 40.4676 75.377 32.411 66.125C24.6544 57.2019 24.6544 43.6886 32.411 34.7655C40.4676 25.5135 53.7667 24.0406 63.4803 30.3754C66.3373 32.2344 69.6513 33.264 73.0368 33.4785C73.0225 32.0485 72.4654 30.6185 71.3798 29.5175C59.852 17.9918 41.0818 17.9918 29.554 29.5318Z" fill="#F8B400"/>
<path d="M171.544 81.4802C188.743 64.2633 188.658 36.3071 171.302 19.1902C154.088 2.21636 126.247 2.71686 109.163 19.8194L89.5643 39.4388C86.3788 42.6276 82.2647 44.6582 77.8508 45.2874C77.7936 46.8175 78.3364 48.3619 79.5078 49.5202C81.7219 51.7366 85.3217 51.7366 87.5358 49.5202L113.563 23.4659C120.762 16.2588 130.347 12.2834 140.547 12.2834C150.732 12.2834 160.317 16.2588 167.53 23.4659C174.73 30.673 178.701 40.2682 178.701 50.4782C178.701 60.674 174.73 70.2692 167.53 77.4906C152.66 92.3767 128.447 92.3767 113.577 77.4906C111.363 75.2741 107.763 75.2741 105.549 77.4906C104.42 78.6203 103.878 80.1075 103.892 81.5803C107.692 81.9235 111.306 83.3821 114.391 85.6701C131.533 98.4827 155.945 97.0813 171.544 81.4802Z" fill="#00554B"/>
<path d="M79.5066 41.4875C78.4496 42.5457 77.9067 43.9042 77.8496 45.2913C82.2636 44.6764 86.3776 42.6315 89.5631 39.4427L109.162 19.8233C126.246 2.72074 154.087 2.22025 171.3 19.1941C188.656 36.311 188.728 64.2672 171.543 81.4841C155.959 97.0852 131.546 98.4866 114.376 85.6597C111.29 83.3574 107.676 81.9131 103.876 81.5699C103.891 82.9999 104.448 84.4299 105.533 85.5167C124.832 104.836 156.244 104.836 175.543 85.5167C184.9 76.1503 190.042 63.7095 190.042 50.4678C190.042 37.2262 184.885 24.7854 175.543 15.419C156.244 -3.90008 124.832 -3.90008 105.519 15.419L79.5066 41.4875Z" fill="#00554B"/>
<path d="M158.775 50.4649C158.775 55.3412 156.875 59.9171 153.433 63.3634C149.99 66.8096 145.419 68.7115 140.548 68.7115C135.677 68.7115 131.105 66.8096 127.663 63.3634C125.449 61.1469 121.849 61.1469 119.635 63.3634C118.521 64.4788 117.964 65.9516 117.978 67.4245C121.378 67.639 124.677 68.6686 127.534 70.5276C137.248 76.8481 150.547 75.3895 158.604 66.1375C166.36 57.2145 166.36 43.7011 158.604 34.778C150.547 25.5261 137.248 24.0532 127.534 30.388C124.677 32.247 121.363 33.2766 117.978 33.4911C117.964 34.9639 118.521 36.4368 119.635 37.5665C121.849 39.783 125.449 39.783 127.663 37.5665C134.762 30.4595 146.333 30.4595 153.433 37.5665C156.875 41.0128 158.775 45.603 158.775 50.4649Z" fill="#F8B400"/>
<path d="M158.603 34.7754C166.36 43.6985 166.36 57.2118 158.603 66.1349C150.547 75.3869 137.248 76.8598 127.534 70.5249C124.677 68.666 121.363 67.6364 117.978 67.4219C117.992 68.8662 118.535 70.3105 119.635 71.4115C125.22 77.0028 132.648 80.0772 140.547 80.0772C148.447 80.0772 155.875 77.0028 161.46 71.4115C167.046 65.8203 170.117 58.3844 170.117 50.4766C170.117 42.5688 167.046 35.1329 161.46 29.5417C149.933 18.0017 131.162 18.0017 119.635 29.5417C118.535 30.6428 117.992 32.0727 117.978 33.5027C121.377 33.2882 124.677 32.2586 127.534 30.3997C137.248 24.0506 150.547 25.5234 158.603 34.7754Z" fill="#F8B400"/>
</svg>
